<?xml version="1.0"?>
<svg xmlns="http://www.w3.org/2000/svg" xmlns:xlink="http://www.w3.org/1999/xlink" xmlns:svgjs="http://svgjs.com/svgjs" version="1.1" width="512" height="512" x="0" y="0" viewBox="0 0 512 512" style="enable-background:new 0 0 512 512" xml:space="preserve" class=""><g><g xmlns="http://www.w3.org/2000/svg"><g fill="#69fbc2"><path d="m160.119 246.239c10.53-13.571 7.786-33.003-1.935-47.445-10.173-15.112-38.65-58.061-52.238-67.074-11.335-7.521-28.13-7.263-40.262.087-2.086 1.27-6.805 5.454-12.368 10.695l84.382 123.475c11.11-9.619 21.815-18.957 22.421-19.738z" fill="#a51010" data-original="#69fbc2" style="" class=""/><path d="m380.343 446.466c7.366-12.114 7.626-28.909.105-40.244-9.013-13.588-50.587-40.795-67.075-52.237-14.302-9.928-33.889-12.479-47.463-1.952-.763.592-9.708 10.843-19.099 21.685l122.588 85.406c5.359-5.685 9.66-10.532 10.944-12.658z" fill="#a51010" data-original="#69fbc2" style="" class=""/></g><g><g fill="#00008b"><path d="m416.251 80.667c-3.906-3.904-10.236-3.904-14.142 0-3.905 3.905-3.905 10.237 0 14.143l13.052 13.052h-136.511c-5.522 0-10 4.478-10 10s4.478 10 10 10h136.511l-13.052 13.051c-3.905 3.905-3.905 10.237 0 14.143 3.907 3.905 10.236 3.904 14.142 0l30.123-30.122c3.903-3.903 3.904-10.236 0-14.143z" fill="#000000" data-original="#00008b" style="" class=""/><path d="m439.303 178.146h-136.511l13.052-13.051c3.905-3.905 3.905-10.237 0-14.143-3.906-3.904-10.236-3.904-14.142 0l-30.122 30.122c-3.905 3.905-3.905 10.237 0 14.143l30.122 30.123c3.907 3.905 10.236 3.904 14.142 0 3.905-3.905 3.905-10.237 0-14.143l-13.052-13.052h136.512c5.522 0 10-4.477 10-10-.001-5.521-4.478-9.999-10.001-9.999z" fill="#000000" data-original="#00008b" style="" class=""/><path d="m358.474 0c-41.004 0-79.555 15.968-108.55 44.963-53.471 53.473-59.452 136.993-16.796 197.193l-6.234 31.169c-1.397 6.983 4.773 13.173 11.767 11.767l31.167-6.232c59.654 42.342 143.265 37.134 197.196-16.798 28.995-28.995 44.963-67.545 44.963-108.549 0-84.842-68.659-153.513-153.513-153.513zm.015 287.019c-29.275-.001-57.037-9.272-80.285-26.811-2.252-1.699-5.147-2.388-7.983-1.822l-20.772 4.154 4.154-20.772c.561-2.799-.104-5.704-1.822-7.983-39.811-52.768-34.528-127.863 12.287-174.678 25.217-25.219 58.744-39.107 94.406-39.107 73.786 0 133.513 59.713 133.513 133.513 0 73.772-59.7 133.509-133.498 133.506z" fill="#000000" data-original="#00008b" style="" class=""/><path d="m319.075 345.77c-18.01-12.501-42.246-14.861-59.294-1.639-.939.729-2.341 1.814-38.783 44.187-35.873-12.135-85.014-61.279-97.161-97.166 42.371-36.443 43.457-37.845 44.183-38.782 12.261-15.801 11.643-39.575-1.539-59.159-10.882-15.819-38.955-59.175-55.005-69.822-14.887-9.878-35.869-9.283-50.989-.124-8.197 4.988-41.435 38.703-44.944 43.16-1.58 2.028-3.528 3.798-5.455 7.579-21.785 43.078-4.218 122.288 14.791 166.669 23.811 55.653 90.945 122.789 146.596 146.6 28.718 12.307 75.643 24.727 115.735 24.727 20.771 0 37.909-3.344 50.896-9.915 3.773-1.886 5.571-3.847 7.674-5.488 4.432-3.486 38.172-36.767 43.108-44.936 9.491-15.609 9.447-36.568-.108-50.967-10.261-15.472-51.743-42.462-69.705-54.924zm52.722 95.503c-3.388 5.345-34.177 36.218-38.348 39.577-2.428 1.891-3.086 2.745-4.33 3.367-36.151 18.294-112.21.767-149.773-15.331-50.771-21.724-114.36-85.312-136.082-136.086-17.342-40.485-33.563-113.717-15.345-149.742.603-1.181 1.592-2.023 3.357-4.289 3.395-4.215 34.272-35.024 39.589-38.409 9.052-5.483 21.669-5.538 29.552-.307 11.823 7.843 41.577 52.577 49.471 64.325 6.851 10.179 10.268 24.952 2.661 35.293-3.879 3.652-30.319 26.493-46.603 40.486-2.826 2.429-4.067 6.228-3.221 9.857 10.563 45.255 74.176 108.867 119.413 119.413 3.632.845 7.427-.396 9.855-3.222 13.993-16.286 36.834-42.727 40.485-46.604 10.085-7.42 24.866-4.569 35.192 2.599 12.404 8.608 56.643 37.791 64.444 49.551 5.247 7.905 5.111 20.596-.317 29.522z" fill="#000000" data-original="#00008b" style="" class=""/></g></g></g></g></svg>
